<svg width="24" height="24" viewBox="0 0 24 24" fill="none" xmlns="http://www.w3.org/2000/svg">
  <path d="M12.1 4C7.9 4 5 6.8 5 10.8C5 13.5 6.5 15.1 7.5 15.1C7.9 15.1 8.2 14.1 8.2 13.8C8.2 13.4 7.2 12.6 7.2 10.9C7.2 8.2 9.3 6.4 11.9 6.4C14.2 6.4 16 7.7 16 10.1C16 11.9 15.2 15.2 12.7 15.2C11.8 15.2 11.1 14.4 11.1 13.6C11.1 12.3 12 11 12 9.6C12 7.1 8.4 9.9 10.5 14.8L9.2 20C9.8 20.1 10.4 20.2 11 20.2C15.8 20.2 19 16.5 19 11.2C19 6.8 15.7 4 12.1 4Z" stroke="#D4AF37" stroke-linejoin="round"/>
</svg>
